<svg xmlns="http://www.w3.org/2000/svg" version="1.1" xmlns:xlink="http://www.w3.org/1999/xlink" xmlns:svgjs="http://svgjs.dev/svgjs" width="1000" height="1000" viewBox="0 0 1000 1000"><g transform="matrix(1,0,0,1,-0.49999999999994316,-0.500393184796792)"><svg viewBox="0 0 280 280" data-background-color="#ffffff" preserveAspectRatio="xMidYMid meet" height="1000" width="1000" xmlns="http://www.w3.org/2000/svg" xmlns:xlink="http://www.w3.org/1999/xlink"><g id="tight-bounds" transform="matrix(1,0,0,1,0.13999999999998636,0.14011009174311084)"><svg viewBox="0 0 279.72 279.72" height="279.72" width="279.72"><g><svg viewBox="0 0 279.72 279.72" height="279.72" width="279.72"><g><svg viewBox="0 0 279.72 279.72" height="279.72" width="279.72"><g id="textblocktransform"><svg viewBox="0 0 279.72 279.72" height="279.72" width="279.72" id="textblock"><g><svg viewBox="0 0 279.72 279.72" height="279.72" width="279.72"><g transform="matrix(1,0,0,1,57.446704652707865,57.446704652707865)"><svg viewBox="0 0 164.8265906945843 164.8265906945843" height="164.8265906945843" width="164.8265906945843"><g><circle r="82" cx="82.41329534729215" cy="82.41329534729215" fill="#8b3c7f" data-fill-palette-color="accent"></circle><svg xmlns="http://www.w3.org/2000/svg" xmlns:xlink="http://www.w3.org/1999/xlink" version="1.1" x="24.72398860418764" y="24.723988604187646" viewBox="25.000674414426452 0 50.27832558557354 100" enable-background="new 0 0 100 100" xml:space="preserve" height="115.378613486209" width="115.378613486209" class="icon-kg-0" data-fill-palette-color="quaternary" id="kg-0"><g fill="#ffffff" data-fill-palette-color="quaternary"><g fill="#ffffff" data-fill-palette-color="quaternary"><path d="M37 50c-1.048 7.799 3.27 10.057 3.27 19.602 0 25.398-40.086 30.333 9.642 30.396V100c0.083 0 0.161-0.001 0.245-0.001S50.317 100 50.402 100v-0.002c18.305-0.023 24.432-1.323 24.877-3.995C51 81 45 67.179 37 50z" fill="#ffffff" data-fill-palette-color="quaternary"></path></g><path d="M38.275 41.361C34 51 57 86 75 94c-4.397-4.956-14.957-15.013-14.957-24.398 0-12.317 10.133-12.792 1.993-28.24-8.139-15.448-1.162-19.435 1.993-22.757C67.187 15.282 62.701 9.801 60.376 0l-2.295 2.987c0.592 3.58-0.948 7.395-2.531 7.395-4.484 0-5.481 3.571-5.481 3.571s-1.495-3.571-5.316-3.571c-1.618 0-3.335-3.991-2.709-7.642L39.938 0c-2.325 9.801-6.811 15.282-3.655 18.604C39.438 21.927 45.355 25.398 38.275 41.361z" fill="#ffffff" data-fill-palette-color="quaternary"></path></g></svg></g></svg></g><g><path d="M28.411 86.667v0l-4.723-1.786c-0.354-0.134-0.639-0.216-0.856-0.246-0.226-0.026-0.479 0.069-0.759 0.286-0.285 0.209-0.533 0.593-0.746 1.153v0l-0.515 1.362-1.062-0.402 3.364-8.894 1.062 0.402-0.23 0.608c-0.287 0.76-0.329 1.307-0.124 1.642 0.208 0.344 0.577 0.616 1.105 0.815v0l3.882 1.469c2.579 5.148 3.052 9.879 1.42 14.192v0c-1.093 2.891-3.349 4.981-6.765 6.271-3.415 1.284-6.718 1.322-9.912 0.115v0c-4.14-1.566-7.196-4.469-9.168-8.711-1.981-4.237-2.198-8.4-0.652-12.488v0c0.575-1.519 1.783-3.41 3.625-5.672v0l5.337 1.765-0.515 1.362c-2.285-0.864-4.273 0.937-5.963 5.405v0c-1.159 3.064-1.301 5.988-0.425 8.769 0.876 2.782 2.875 4.763 5.997 5.945v0c1.751 0.662 3.45 0.996 5.097 1 1.656 0.001 3.099-0.245 4.329-0.736 1.231-0.491 2.359-1.139 3.385-1.943v0c1.842-1.504 3.104-3.157 3.785-4.959 0.682-1.803 0.691-4.044 0.027-6.724z" fill="#630094" data-fill-palette-color="primary"></path><path d="M56.804 51.808l0.828 0.778-5.57 5.931-0.827-0.778 0.388-0.414c0.41-0.437 0.611-0.842 0.605-1.217-0.002-0.37-0.231-0.769-0.688-1.198v0l-17.491-16.425c-0.376-0.353-0.77-0.482-1.181-0.387-0.406 0.1-0.906 0.467-1.499 1.099v0l-0.828-0.777c0.372-0.396 0.832-1.107 1.379-2.133 0.557-1.025 0.892-1.835 1.005-2.427v0l0.381-0.647 20.457 19.21c0.316 0.297 0.559 0.496 0.727 0.598 0.169 0.102 0.415 0.116 0.739 0.042 0.324-0.064 0.682-0.304 1.073-0.72v0z" fill="#630094" data-fill-palette-color="primary"></path><path d="M97.333 25.646l0.503 1.018-5.249 2.591-1.44-2.916c-0.567 1.915-1.133 3.311-1.698 4.188-0.562 0.884-1.531 1.665-2.907 2.345-1.37 0.676-2.596 0.882-3.678 0.618-1.085-0.27-1.916-0.989-2.492-2.156-0.576-1.167-0.633-2.551-0.172-4.151 0.467-1.604 1.232-3.026 2.293-4.264 1.068-1.241 2.037-2.264 2.907-3.07 0.875-0.808 1.483-1.296 1.822-1.463v0l-0.398-0.806c-1.127-2.284-2.638-2.958-4.533-2.022v0c-1.315 0.649-2.398 1.533-3.25 2.652-0.855 1.113-1.348 2.246-1.477 3.4v0l-1.056-0.297c0.07-3.964 2.111-6.937 6.123-8.917v0c1.025-0.506 2.006-0.648 2.943-0.428 0.935 0.214 1.699 0.628 2.293 1.24 0.591 0.622 1.107 1.38 1.549 2.276v0l4.862 9.85c0.155 0.315 0.3 0.546 0.435 0.695 0.132 0.142 0.364 0.231 0.696 0.267 0.338 0.033 0.761-0.076 1.267-0.326v0zM90.137 24.293v0l-2.193-4.444c-1.715 1.299-3.118 2.897-4.208 4.794-1.09 1.897-1.317 3.49-0.681 4.78v0c0.253 0.512 0.722 0.833 1.408 0.963 0.68 0.133 1.39 0.016 2.131-0.349 0.747-0.369 1.465-1.138 2.154-2.307 0.693-1.178 1.156-2.324 1.389-3.437z" fill="#630094" data-fill-palette-color="primary"></path><path d="M158.552 18.328l0.009 1.136-7.083 0.057-0.009-1.135 0.165-0.002c0.296-0.002 0.546-0.156 0.75-0.46 0.197-0.298 0.294-0.663 0.291-1.097v0l-0.084-10.334c-0.009-1.081-0.281-1.973-0.817-2.678-0.529-0.698-1.21-1.043-2.042-1.037-0.826 0.007-1.582 0.202-2.267 0.586-0.692 0.384-1.246 0.85-1.661 1.397-0.415 0.547-0.783 1.118-1.101 1.713v0c-0.535 1.064-0.801 1.855-0.797 2.371v0l0.065 7.97c0.009 1.087 0.612 1.626 1.809 1.617v0l0.723-0.006 0.009 1.136-7.072 0.057-0.009-1.136 0.248-0.002c0.241-0.002 0.463-0.155 0.667-0.459 0.197-0.298 0.294-0.663 0.291-1.097v0l-0.084-10.335c-0.009-1.081-0.274-1.973-0.796-2.678-0.522-0.698-1.223-1.043-2.104-1.036-0.881 0.007-1.712 0.3-2.492 0.877-0.78 0.571-1.398 1.24-1.852 2.008v0c-0.91 1.549-1.362 2.637-1.358 3.263v0l0.063 7.723c0.004 0.434 0.027 0.747 0.069 0.939 0.043 0.192 0.199 0.38 0.47 0.564 0.277 0.19 0.698 0.283 1.262 0.279v0l0.733-0.006 0.009 1.135-8.218 0.067-0.01-1.136 0.651-0.005c0.736-0.006 1.204-0.134 1.401-0.383 0.205-0.243 0.305-0.636 0.3-1.179v0l-0.099-12.204c-0.004-0.516-0.176-0.887-0.515-1.111-0.346-0.231-0.966-0.343-1.861-0.336v0l-0.009-1.135c0.544-0.004 1.365-0.207 2.463-0.609 1.091-0.401 1.921-0.783 2.489-1.145v0l0.732-0.161 0.042 5.203c0.77-1.851 1.702-3.215 2.796-4.09 1.087-0.876 2.581-1.322 4.48-1.338v0c0.867-0.007 1.629 0.169 2.287 0.529 0.65 0.36 1.143 0.837 1.477 1.434v0c0.545 1.056 0.851 2.179 0.916 3.368v0c0.612-1.822 1.482-3.178 2.61-4.068 1.135-0.89 2.663-1.343 4.583-1.359v0c0.977-0.008 1.808 0.202 2.494 0.63 0.678 0.428 1.171 0.978 1.479 1.651v0c0.519 1.166 0.783 2.317 0.792 3.452v0l0.089 10.985c0.003 0.379 0.033 0.664 0.09 0.857v0c0.142 0.515 0.715 0.769 1.72 0.76v0z" fill="#630094" data-fill-palette-color="primary"></path><path d="M193.412 31.344v0c-2.152-1.037-3.558-2.708-4.219-5.013-0.668-2.308-0.483-4.538 0.553-6.69v0c1.318-2.734 3.486-4.593 6.504-5.576 3.018-0.983 5.674-0.922 7.969 0.184 2.3 1.109 3.76 2.813 4.378 5.112 0.625 2.303 0.424 4.518-0.601 6.645v0c-1.282 2.66-3.391 4.524-6.328 5.592-2.937 1.068-5.689 0.983-8.256-0.254zM193.264 18.906c-1.094 2.269-1.311 4.488-0.652 6.655 0.65 2.17 1.837 3.671 3.562 4.501 1.724 0.831 3.385 0.833 4.982 0.006 1.604-0.824 2.737-1.921 3.397-3.291v0c0.998-2.071 1.23-4.194 0.697-6.369-0.536-2.169-1.719-3.694-3.548-4.576-1.835-0.885-3.531-0.941-5.087-0.17-1.562 0.768-2.679 1.849-3.351 3.244z" fill="#630094" data-fill-palette-color="primary"></path><path d="M240.568 68.177l-0.857 0.746-3.851-4.423 3.621-3.153c-1.694 0.654-3.321 0.797-4.881 0.431-1.56-0.366-2.955-1.256-4.185-2.668v0c-0.642-0.737-1.023-1.505-1.143-2.303-0.116-0.793-0.017-1.523 0.298-2.19v0c0.544-1.158 1.244-2.109 2.1-2.855v0l7.304-6.359c0.94-0.818 0.892-1.822-0.144-3.011v0l0.857-0.745c0.357 0.41 1.011 0.931 1.963 1.562 0.942 0.631 1.704 1.035 2.287 1.212v0l0.544 0.499-10.123 8.814c-0.919 0.8-1.428 1.631-1.526 2.492-0.098 0.852 0.201 1.678 0.897 2.477v0c0.999 1.147 2.493 1.626 4.482 1.437 1.994-0.194 3.298-0.557 3.91-1.091v0l4.968-4.326c0.94-0.818 0.894-1.819-0.136-3.002v0l0.856-0.746c0.393 0.452 1.063 0.991 2.01 1.617 0.946 0.636 1.711 1.043 2.295 1.22v0l0.536 0.491-12.513 10.895c-0.286 0.249-0.483 0.457-0.592 0.625v0c-0.299 0.443-0.118 1.043 0.541 1.801v0z" fill="#630094" data-fill-palette-color="primary"></path><path d="M257.655 103.279l-1.075 0.365-2.819-8.322 1.076-0.365 0.208 0.616c0.236 0.698 0.504 1.101 0.803 1.211 0.294 0.118 0.699 0.09 1.214-0.084v0l11.559-3.915c0.489-0.166 0.787-0.445 0.894-0.836 0.111-0.401 0.023-1.025-0.264-1.873v0l1.076-0.365c0.174 0.515 0.624 1.231 1.349 2.149 0.723 0.911 1.345 1.579 1.867 2.005v0l0.382 0.645-4.772 1.616c2.341 0.239 4.037 0.838 5.089 1.798 1.058 0.957 1.979 2.593 2.763 4.907v0l-4.549 1.279-0.391-1.154c0.359-0.121 0.659-0.372 0.901-0.752 0.246-0.389 0.27-0.876 0.071-1.463v0c-0.435-1.284-1.539-2.259-3.311-2.923-1.771-0.658-3.298-0.769-4.583-0.334v0l-6.776 2.295c-0.411 0.139-0.701 0.259-0.871 0.36-0.169 0.101-0.299 0.308-0.388 0.622-0.094 0.323-0.051 0.751 0.13 1.286v0z" fill="#630094" data-fill-palette-color="primary"></path><path d="M23.293 198.06v0l-1.005 1.393c-3.02-1.169-5.445-2.557-7.276-4.164-1.831-1.607-3.171-3.563-4.021-5.869v0c-1.049-2.848-0.728-5.842 0.962-8.98 1.681-3.142 4.111-5.299 7.289-6.469v0c3.985-1.468 8.063-1.26 12.233 0.623 4.172 1.889 6.992 4.826 8.46 8.811v0c0.585 1.589 0.918 3.718 0.999 6.388v0l-5.367 1.47-0.464-1.259c0.917-0.338 1.523-0.913 1.818-1.726 0.288-0.81 0.357-1.631 0.204-2.463-0.152-0.831-0.442-1.829-0.87-2.991v0c-1.058-2.874-2.82-5.068-5.284-6.581-2.471-1.511-5.169-1.727-8.095-0.65v0c-2.131 0.785-3.881 1.88-5.248 3.286-1.37 1.399-2.284 2.862-2.742 4.387v0c-0.865 2.989-0.901 5.561-0.106 7.719v0c0.492 1.337 1.472 2.663 2.939 3.979 1.47 1.322 3.328 2.354 5.574 3.096z" fill="#630094" data-fill-palette-color="primary"></path><path d="M37.402 224.732l-5.315 1.879-11.678-17.738 0.992-0.653 0.744 1.129c0.435 0.661 0.84 1.013 1.214 1.055 0.376 0.033 0.805-0.11 1.288-0.427v0l18.265-12.025c0.489-0.322 0.789-0.66 0.902-1.014 0.109-0.36-0.054-0.871-0.489-1.532v0l-0.744-1.13 0.992-0.652 5.535 8.408-0.992 0.653-0.829-1.26c-0.435-0.661-0.838-1.01-1.208-1.046-0.374-0.042-0.805 0.097-1.294 0.419v0l-17.799 11.718c-0.489 0.322-0.799 0.67-0.931 1.045-0.136 0.37 0.014 0.885 0.449 1.546v0l4.139 6.287c0.772 1.173 1.834 1.953 3.185 2.341 1.349 0.397 2.389 0.356 3.119-0.125v0z" fill="#630094" data-fill-palette-color="primary"></path><path d="M46.236 242.204v0c-2.521-2.363-3.711-5.31-3.571-8.841 0.135-3.525 1.396-6.56 3.782-9.106v0c1.483-1.582 3.256-2.778 5.319-3.59 2.068-0.817 4.124-1.224 6.169-1.221 2.05-0.003 4.022 0.309 5.918 0.934 1.9 0.621 3.465 1.508 4.695 2.661v0c2.506 2.349 3.696 5.291 3.571 8.826-0.135 3.535-1.395 6.575-3.782 9.121v0c-1.77 1.888-4.008 3.253-6.713 4.095-2.709 0.847-5.475 1.024-8.295 0.53-2.82-0.484-5.185-1.62-7.093-3.409zM50.091 241.685v0c2.099 1.968 4.589 2.854 7.47 2.659 2.881-0.195 5.388-1.43 7.521-3.704 2.128-2.27 3.208-5.092 3.241-8.468 0.033-3.376-1.136-6.175-3.506-8.397v0c-2.019-1.893-4.479-2.831-7.381-2.815-2.897 0.02-5.294 1.042-7.191 3.065v0c-2.453 2.616-3.742 5.606-3.867 8.97-0.126 3.354 1.112 6.251 3.713 8.69z" fill="#630094" data-fill-palette-color="primary"></path><path d="M78.273 262.974l-0.548 0.959-8.938-5.106 0.548-0.96 1.372 0.784c0.687 0.393 1.2 0.507 1.539 0.344 0.336-0.157 0.64-0.475 0.913-0.952v0l10.613-18.575c0.198-0.347 0.33-0.632 0.394-0.857 0.061-0.219 0.019-0.477-0.128-0.775-0.147-0.298-0.462-0.585-0.946-0.861v0l-2.062-1.178c-1.213-0.693-2.362-0.854-3.446-0.483-1.078 0.375-1.884 0.973-2.417 1.794v0l-0.836-0.763 3.05-4.548 19.337 11.048-2.369 4.937-1.082-0.333c0.427-0.858 0.524-1.853 0.29-2.985-0.236-1.141-0.948-2.052-2.137-2.731v0l-2.062-1.178c-0.508-0.29-0.937-0.42-1.287-0.391-0.35 0.03-0.6 0.121-0.75 0.273-0.154 0.158-0.33 0.41-0.528 0.757v0l-10.613 18.575c-0.181 0.317-0.3 0.581-0.358 0.794-0.058 0.213-0.008 0.471 0.151 0.776 0.159 0.305 0.492 0.602 1 0.892v0z" fill="#630094" data-fill-palette-color="primary"></path><path d="M118.56 276.991l-0.309 1.06-9.664-2.82 0.31-1.06 1.219 0.355c0.555 0.162 0.999 0.188 1.332 0.077 0.34-0.109 0.563-0.259 0.669-0.45 0.111-0.183 0.222-0.466 0.334-0.849v0l2.974-10.188-14.758-4.307-2.974 10.189c-0.162 0.555-0.173 1.022-0.032 1.399 0.136 0.37 0.584 0.665 1.344 0.887v0l1.447 0.422-0.309 1.061-9.664-2.82 0.31-1.061 1.298 0.379c0.76 0.222 1.3 0.214 1.62-0.022 0.315-0.245 0.554-0.645 0.716-1.2v0l6.126-20.992c0.164-0.562 0.178-1.027 0.042-1.397-0.143-0.371-0.594-0.668-1.354-0.889v0l-1.299-0.379 0.31-1.061 9.663 2.82-0.309 1.061-1.447-0.422c-0.76-0.222-1.296-0.213-1.61 0.025-0.32 0.236-0.562 0.635-0.726 1.197v0l-2.663 9.128 14.757 4.307 2.664-9.129c0.112-0.383 0.17-0.682 0.175-0.895 0.014-0.218-0.094-0.465-0.322-0.739-0.222-0.273-0.61-0.49-1.165-0.652v0l-1.219-0.356 0.31-1.06 9.663 2.82-0.309 1.06-1.447-0.422c-0.562-0.164-1.009-0.191-1.343-0.08-0.333 0.111-0.556 0.261-0.669 0.45-0.104 0.185-0.212 0.469-0.324 0.852v0l-6.126 20.992c-0.112 0.383-0.174 0.681-0.185 0.892-0.007 0.22 0.1 0.467 0.322 0.74 0.222 0.273 0.613 0.491 1.175 0.654v0z" fill="#630094" data-fill-palette-color="primary"></path><path d="M149.826 274.298l-1.543 5.422-21.224-0.74 0.038-1.104 1.352 0.047c0.764 0.027 1.278-0.104 1.542-0.39 0.258-0.28 0.398-0.737 0.42-1.37v0l0.762-21.854c0.018-0.53-0.131-0.972-0.45-1.328-0.318-0.355-0.78-0.544-1.385-0.565v0l-1.352-0.047 0.039-1.104 20.915 0.729 0.119 5.469-1.112 0.209c0.033-0.956-0.317-1.881-1.051-2.774-0.74-0.9-1.794-1.375-3.163-1.422v0l-7.212-0.252c-0.791-0.028-1.309 0.106-1.554 0.401-0.251 0.294-0.387 0.72-0.406 1.277v0l-0.314 9.029 7.924 0.276c0.392 0.014 0.695 0.004 0.91-0.03 0.215-0.034 0.409-0.165 0.582-0.393 0.18-0.235 0.278-0.576 0.294-1.023v0l0.063-1.816 1.197 0.042-0.287 8.234-1.197-0.042 0.059-1.672c0.023-0.653-0.107-1.085-0.389-1.294-0.282-0.21-0.712-0.324-1.29-0.345v0l-7.924-0.276-0.356 10.215c-0.019 0.557 0.086 0.991 0.316 1.302 0.223 0.311 0.731 0.48 1.521 0.508v0l7.522 0.262c1.403 0.049 2.654-0.359 3.752-1.222 1.104-0.857 1.695-1.707 1.773-2.552v0z" fill="#630094" data-fill-palette-color="primary"></path><path d="M170.892 274.732v0l-0.874-5.108 1.313-0.288c0.398 1.397 1.551 2.282 3.461 2.654 1.905 0.381 3.916 0.27 6.035-0.332 2.125-0.605 3.628-1.383 4.509-2.336 0.881-0.952 1.181-1.925 0.898-2.917v0c-0.477-1.675-1.79-2.919-3.939-3.731v0c-0.894-0.325-1.806-0.574-2.734-0.747v0c-2.129-0.439-3.466-0.724-4.012-0.855-0.547-0.138-1.152-0.263-1.813-0.375-0.662-0.112-1.286-0.257-1.873-0.433-0.587-0.176-1.223-0.414-1.91-0.712v0c-1.561-0.658-2.521-1.616-2.878-2.874-0.358-1.258-0.448-2.417-0.27-3.476 0.176-1.066 0.525-1.964 1.048-2.692 0.523-0.728 1.191-1.398 2.004-2.009v0c1.389-1.004 3.04-1.778 4.954-2.322 1.92-0.546 3.908-0.59 5.963-0.13v0l0.801 4.549-1.301 0.37c-0.68-2.39-3.026-3.014-7.038-1.872v0c-1.854 0.528-3.16 1.218-3.919 2.071-0.761 0.846-0.997 1.776-0.709 2.789v0c0.463 1.629 3.662 2.833 9.594 3.613v0c3.91 0.512 6.605 1.545 8.085 3.099v0c0.743 0.776 1.27 1.71 1.581 2.803v0c0.752 2.641 0.275 4.989-1.431 7.041-1.706 2.053-4.058 3.506-7.057 4.359-2.999 0.853-5.828 0.807-8.488-0.139z" fill="#630094" data-fill-palette-color="primary"></path><path d="M210.816 259.728l0.516 0.977-9.104 4.805-0.515-0.977 1.397-0.738c0.7-0.369 1.072-0.741 1.116-1.114 0.047-0.367-0.058-0.795-0.315-1.282v0l-9.985-18.919c-0.186-0.353-0.357-0.617-0.512-0.792-0.151-0.169-0.392-0.272-0.722-0.308-0.33-0.036-0.742 0.076-1.235 0.337v0l-2.1 1.108c-1.236 0.652-1.988 1.535-2.256 2.65-0.262 1.111-0.189 2.112 0.218 3.002v0l-1.092 0.296-2.203-5.013 19.696-10.395 2.896 4.647-0.861 0.735c-0.495-0.82-1.283-1.436-2.364-1.846-1.09-0.413-2.24-0.3-3.452 0.339v0l-2.1 1.108c-0.517 0.273-0.857 0.565-1.02 0.877-0.162 0.311-0.22 0.571-0.172 0.78 0.051 0.214 0.17 0.498 0.356 0.851v0l9.985 18.919c0.17 0.323 0.33 0.565 0.478 0.728 0.148 0.163 0.394 0.259 0.736 0.289 0.342 0.029 0.772-0.092 1.29-0.365v0z" fill="#630094" data-fill-palette-color="primary"></path><path d="M231.805 246.799v0c-2.63 2.241-5.692 3.094-9.184 2.561-3.488-0.528-6.363-2.12-8.626-4.777v0c-1.406-1.651-2.397-3.546-2.973-5.687-0.58-2.146-0.755-4.235-0.523-6.267 0.227-2.037 0.757-3.963 1.59-5.776 0.829-1.818 1.885-3.274 3.169-4.368v0c2.615-2.227 5.671-3.081 9.169-2.562 3.498 0.529 6.378 2.122 8.641 4.778v0c1.678 1.97 2.784 4.346 3.319 7.128 0.539 2.787 0.405 5.555-0.401 8.303-0.796 2.749-2.19 4.971-4.181 6.667zM231.721 242.91v0c2.19-1.866 3.35-4.241 3.478-7.126 0.128-2.885-0.818-5.515-2.841-7.888-2.017-2.368-4.702-3.757-8.052-4.167-3.351-0.41-6.263 0.439-8.736 2.545v0c-2.106 1.794-3.314 4.134-3.623 7.02-0.304 2.881 0.444 5.377 2.242 7.489v0c2.325 2.73 5.153 4.345 8.482 4.846 3.319 0.5 6.336-0.406 9.05-2.719z" fill="#630094" data-fill-palette-color="primary"></path><path d="M225.819 213.605l3.507-4.993 4.005-6.385c1.337-1.904 2.831-3.18 4.481-3.829 1.65-0.649 3.166-0.489 4.546 0.48v0c1.926 1.353 3.131 2.973 3.614 4.86 0.477 1.883 0.5 3.804 0.066 5.762v0l11.599 0.299c0.494 0.027 1.249-0.06 2.267-0.263 1.021-0.208 1.706-0.56 2.053-1.056v0l0.41-0.583 0.904 0.635-3.371 4.799c0.047-0.068-0.421-0.089-1.405-0.065-0.98 0.018-1.559 0.016-1.735-0.008v0l-12.086-0.452c-0.105 0.246-0.385 0.692-0.84 1.341-0.455 0.648-0.841 1.15-1.159 1.507v0l-1.477-0.646c0.259-0.273 0.736-0.904 1.432-1.896 0.7-0.997 1.269-2.082 1.707-3.256 0.441-1.179 0.563-2.401 0.367-3.666-0.196-1.265-0.866-2.299-2.01-3.102v0c-3.199-2.247-6.241-1.318-9.125 2.789v0l-2.241 3.46 18.613 13.073c0.327 0.229 0.59 0.381 0.791 0.454 0.202 0.083 0.47 0.061 0.803-0.066 0.33-0.122 0.66-0.419 0.993-0.892v0l0.866-1.234 0.904 0.635-5.785 8.238-0.904-0.635 0.729-1.04c0.336-0.479 0.506-0.894 0.509-1.245 0.003-0.351-0.067-0.611-0.21-0.778-0.141-0.158-0.375-0.352-0.702-0.581v0l-17.895-12.569c-0.496-0.348-0.93-0.502-1.303-0.461-0.368 0.045-0.773 0.382-1.217 1.013v0l-0.73 1.039z" fill="#630094" data-fill-palette-color="primary"></path><path d="M270.007 178.472l4.572 3.298-7.93 19.702-1.025-0.412 0.505-1.255c0.285-0.709 0.338-1.237 0.159-1.583-0.176-0.338-0.557-0.625-1.145-0.862v0l-20.286-8.164c-0.492-0.198-0.959-0.208-1.401-0.03-0.443 0.178-0.777 0.548-1.004 1.11v0l-0.505 1.254-1.024-0.412 7.814-19.415 5.182 1.752-0.183 1.118c-0.888-0.357-1.876-0.343-2.966 0.041-1.099 0.389-1.904 1.218-2.415 2.489v0l-2.695 6.695c-0.296 0.734-0.347 1.267-0.153 1.597 0.191 0.337 0.545 0.609 1.063 0.817v0l8.38 3.373 2.961-7.356c0.146-0.364 0.24-0.653 0.282-0.866 0.041-0.213-0.016-0.44-0.171-0.681-0.159-0.25-0.446-0.458-0.862-0.625v0l-1.685-0.678 0.447-1.111 7.643 3.076-0.447 1.111-1.552-0.624c-0.607-0.244-1.056-0.269-1.349-0.076-0.293 0.194-0.548 0.559-0.764 1.095v0l-2.961 7.356 9.483 3.816c0.517 0.208 0.961 0.257 1.332 0.147 0.368-0.104 0.7-0.523 0.996-1.258v0l2.81-6.982c0.524-1.303 0.567-2.617 0.129-3.943-0.429-1.33-1.027-2.176-1.795-2.537v0z" fill="#630094" data-fill-palette-color="primary"></path><path d="M8.079 139.897c0-1.962 1.59-3.552 3.552-3.552 1.962 0 3.552 1.59 3.552 3.552 0 1.962-1.59 3.552-3.552 3.552-1.962 0-3.552-1.59-3.552-3.552z" fill="#630094" data-fill-palette-color="primary"></path><path d="M268.005 139.897c0-1.962 1.59-3.552 3.552-3.552 1.962 0 3.552 1.59 3.552 3.552 0 1.962-1.59 3.552-3.552 3.552-1.962 0-3.552-1.59-3.552-3.552z" fill="#630094" data-fill-palette-color="primary"></path></g></svg></g></svg></g></svg></g></svg></g><defs></defs></svg><rect width="279.72" height="279.72" fill="none" stroke="none" visibility="hidden"></rect></g></svg></g></svg>